<?xml version="1.0" standalone="no"?>
<!DOCTYPE svg PUBLIC "-//W3C//DTD SVG 20010904//EN"
 "http://www.w3.org/TR/2001/REC-SVG-20010904/DTD/svg10.dtd">
<svg version="1.0" xmlns="http://www.w3.org/2000/svg"
 width="320.000000pt" height="320.000000pt" viewBox="0 0 320.000000 320.000000"
 preserveAspectRatio="xMidYMid meet">
<metadata>
Created by potrace 1.14, written by Peter Selinger 2001-2017
</metadata>
<g transform="translate(0.000000,320.000000) scale(0.100000,-0.100000)"
fill="#000000" stroke="none">
<path d="M1395 2914 c-190 -29 -409 -118 -569 -232 -102 -73 -235 -206 -307
-308 -53 -73 -138 -225 -152 -270 -3 -10 -15 -46 -27 -79 -69 -194 -89 -488
-46 -660 2 -5 6 -31 11 -57 4 -27 12 -48 17 -48 6 0 7 8 4 17 -12 29 -16 162
-6 168 5 3 9 34 9 68 0 34 2 73 6 87 3 14 12 63 21 110 8 47 25 106 38 131 14
25 26 58 29 75 9 59 27 112 42 124 8 7 15 19 15 27 0 9 5 11 12 7 9 -5 9 -2
-1 9 -12 15 -9 21 10 19 4 -1 12 18 18 42 7 28 22 54 41 69 18 15 25 27 18 29
-17 6 18 59 42 65 10 3 26 22 36 44 18 36 28 43 62 42 7 -1 11 2 8 5 -3 3 3
11 14 19 12 8 17 20 13 30 -4 11 -3 14 5 9 7 -4 39 16 79 49 122 104 252 172
400 211 81 21 120 26 222 25 72 0 129 -5 135 -11 5 -5 26 -9 46 -9 l35 2 -40
6 c-23 4 11 7 83 7 67 0 122 -3 122 -8 0 -4 27 -8 60 -8 33 0 68 -4 78 -9 9
-5 55 -19 102 -31 47 -12 94 -27 105 -33 57 -31 73 -38 110 -47 23 -5 58 -25
79 -44 21 -20 41 -35 44 -34 19 4 70 -27 95 -58 16 -19 33 -32 38 -29 5 4 9 2
9 -4 0 -5 22 -26 50 -46 32 -23 47 -41 43 -50 -3 -8 0 -15 6 -15 6 0 11 5 11
11 0 5 5 7 10 4 6 -4 8 -10 5 -15 -2 -4 8 -23 24 -41 16 -18 27 -37 25 -41 -3
-4 1 -8 10 -8 8 0 17 -13 21 -30 7 -30 25 -42 25 -16 0 26 -63 131 -135 226
-293 385 -776 578 -1260 504z m-555 -388 c0 -2 -7 -7 -16 -10 -8 -3 -12 -2 -9
4 6 10 25 14 25 6z"/>
<path d="M600 2264 c0 -8 5 -12 10 -9 6 3 10 10 10 16 0 5 -4 9 -10 9 -5 0
-10 -7 -10 -16z"/>
<path d="M801 2145 c-6 -24 -11 -46 -11 -48 0 -3 39 -14 88 -26 l87 -22 140
-380 c77 -208 163 -441 191 -517 l51 -137 371 -3 372 -2 0 45 0 45 -337 2
-337 3 -37 95 c-20 52 -35 98 -32 103 2 4 184 7 403 7 l398 0 32 138 c18 75
54 229 81 340 27 112 49 206 49 208 0 2 -276 4 -614 4 l-614 0 -22 64 c-24 72
-17 68 -155 101 -38 9 -75 19 -81 20 -7 2 -17 -16 -23 -40z m454 -347 l0 -103
-28 -3 c-19 -2 -29 2 -33 15 -6 15 -53 137 -71 181 -4 9 13 12 64 12 l69 0 -1
-102z m195 -3 l0 -105 -75 0 -75 0 0 105 0 105 75 0 75 0 0 -105z m200 0 l0
-105 -75 0 -75 0 0 105 0 105 75 0 75 0 0 -105z m200 0 l0 -105 -75 0 -75 0 0
105 0 105 75 0 75 0 0 -105z m200 0 l0 -105 -75 0 -75 0 0 105 0 105 75 0 75
0 0 -105z m136 88 c-5 -18 -29 -116 -40 -165 -4 -19 -13 -28 -26 -28 -19 0
-20 7 -20 105 l0 105 46 0 c38 0 45 -3 40 -17z m-926 -283 c0 -43 -15 -54 -23
-17 -2 12 -8 30 -12 40 -5 13 -2 17 14 17 18 0 21 -6 21 -40z m190 -80 l0
-121 -72 3 -73 3 -3 118 -3 117 76 0 75 0 0 -120z m200 0 l0 -120 -75 0 -75 0
0 120 0 120 75 0 75 0 0 -120z m200 0 l0 -120 -75 0 -75 0 0 120 0 120 75 0
75 0 0 -120z m200 0 l0 -120 -75 0 -75 0 0 120 0 120 75 0 75 0 0 -120z m70
88 c-5 -18 -11 -42 -13 -53 -3 -11 -5 4 -6 33 -1 39 3 52 13 52 11 0 13 -7 6
-32z"/>
<path d="M2801 2154 c0 -12 7 -28 17 -35 15 -12 16 -12 6 1 -7 8 -14 24 -17
35 -4 19 -5 19 -6 -1z"/>
<path d="M2933 1600 c0 -47 2 -66 4 -42 2 23 2 61 0 85 -2 23 -4 4 -4 -43z"/>
<path d="M2921 1424 c0 -11 3 -14 6 -6 3 7 2 16 -1 19 -3 4 -6 -2 -5 -13z"/>
<path d="M341 1184 c0 -11 3 -14 6 -6 3 7 2 16 -1 19 -3 4 -6 -2 -5 -13z"/>
<path d="M2816 1053 c-6 -14 -5 -15 5 -6 7 7 10 15 7 18 -3 3 -9 -2 -12 -12z"/>
<path d="M1433 969 c-61 -17 -98 -99 -71 -155 7 -16 29 -39 48 -52 94 -64 215
41 167 144 -26 54 -84 80 -144 63z"/>
<path d="M1921 969 c-47 -10 -82 -48 -87 -95 -6 -48 11 -81 56 -112 90 -61
212 37 170 137 -23 57 -76 84 -139 70z"/>
<path d="M2746 913 c-6 -14 -5 -15 5 -6 7 7 10 15 7 18 -3 3 -9 -2 -12 -12z"/>
<path d="M2541 654 c-13 -13 -19 -24 -14 -24 12 0 48 38 42 44 -2 3 -15 -6
-28 -20z"/>
<path d="M2384 518 l-19 -23 23 19 c21 18 27 26 19 26 -2 0 -12 -10 -23 -22z"/>
<path d="M2274 444 c-18 -14 -18 -15 4 -4 12 6 22 13 22 15 0 8 -5 6 -26 -11z"/>
<path d="M2140 380 c-9 -6 -10 -10 -3 -10 6 0 15 5 18 10 8 12 4 12 -15 0z"/>
<path d="M2038 333 c7 -3 16 -2 19 1 4 3 -2 6 -13 5 -11 0 -14 -3 -6 -6z"/>
<path d="M1975 320 c-13 -5 -14 -9 -5 -9 8 0 24 4 35 9 13 5 14 9 5 9 -8 0
-24 -4 -35 -9z"/>
<path d="M1920 300 c0 -5 5 -10 11 -10 5 0 7 5 4 10 -3 6 -8 10 -11 10 -2 0
-4 -4 -4 -10z"/>
<path d="M1865 290 c-13 -6 -15 -9 -5 -9 8 0 22 4 30 9 18 12 2 12 -25 0z"/>
<path d="M1422 268 c13 -3 93 -6 178 -6 85 0 165 3 178 6 13 4 -67 7 -178 7
-111 0 -191 -3 -178 -7z"/>
</g>
</svg>
